<svg width="24" height="24" viewBox="0 0 24 24" fill="none" xmlns="http://www.w3.org/2000/svg">
<rect x="0.5" y="0.5" width="23" height="23" rx="2.5" fill="#F5F5F5"/>
<rect x="0.5" y="0.5" width="23" height="23" rx="2.5" stroke="#ECECEC"/>
<path d="M6.9691 12.7841V14.6574C6.9691 15.1441 7.23576 15.5974 7.66243 15.8307L10.9958 17.6507C11.3958 17.8707 11.8758 17.8707 12.2758 17.6507L15.6091 15.8307C16.0358 15.5974 16.3024 15.1441 16.3024 14.6574V12.7841L12.2758 14.9841C11.8758 15.2041 11.3958 15.2041 10.9958 14.9841L6.9691 12.7841ZM10.9958 6.34408L5.37576 9.41075C4.91576 9.66408 4.91576 10.3307 5.37576 10.5841L10.9958 13.6507C11.3958 13.8707 11.8758 13.8707 12.2758 13.6507L17.6358 10.7241V14.6641C17.6358 15.0307 17.9358 15.3307 18.3024 15.3307C18.6691 15.3307 18.9691 15.0307 18.9691 14.6641V10.3907C18.9691 10.1441 18.8358 9.92408 18.6224 9.80408L12.2758 6.34408C11.8758 6.13075 11.3958 6.13075 10.9958 6.34408Z" fill="#1A1A1A"/>
</svg>
