<svg width="24" height="24" viewBox="0 0 24 24" fill="none" xmlns="http://www.w3.org/2000/svg">
<rect x="0.5" y="0.5" width="23" height="23" rx="2.5" fill="#F5F5F5"/>
<rect x="0.5" y="0.5" width="23" height="23" rx="2.5" stroke="#ECECEC"/>
<path d="M16.6667 7.33333V16.6667H7.33333V7.33333H16.6667ZM16.6667 6H7.33333C6.6 6 6 6.6 6 7.33333V16.6667C6 17.4 6.6 18 7.33333 18H16.6667C17.4 18 18 17.4 18 16.6667V7.33333C18 6.6 17.4 6 16.6667 6Z" fill="#1A1A1A"/>
<path d="M13.3333 15.3333H8.66667V14H13.3333V15.3333ZM15.3333 12.6667H8.66667V11.3333H15.3333V12.6667ZM15.3333 10H8.66667V8.66667H15.3333V10Z" fill="#1A1A1A"/>
</svg>
