<svg width="24" height="24" viewBox="0 0 24 24" fill="none" xmlns="http://www.w3.org/2000/svg">
<rect x="0.5" y="0.5" width="23" height="23" rx="2.5" fill="#F5F5F5"/>
<rect x="0.5" y="0.5" width="23" height="23" rx="2.5" stroke="#ECECEC"/>
<path d="M10.9998 12.6221H10.3332C9.77984 12.6221 9.33317 12.1754 9.33317 11.6221C9.33317 11.0688 9.77984 10.6221 10.3332 10.6221H10.9998V9.95545C10.9998 9.40211 11.4465 8.95545 11.9998 8.95545C12.5532 8.95545 12.9998 9.40211 12.9998 9.95545V10.6221H13.6665C14.2198 10.6221 14.6665 11.0688 14.6665 11.6221C14.6665 12.1754 14.2198 12.6221 13.6665 12.6221H12.9998V13.2888C12.9998 13.8421 12.5532 14.2888 11.9998 14.2888C11.4465 14.2888 10.9998 13.8421 10.9998 13.2888V12.6221ZM11.5332 5.46211L7.53317 6.96211C7.01317 7.16211 6.6665 7.65545 6.6665 8.21545V11.3488C6.6665 14.7154 8.93984 17.8554 11.9998 18.6221C15.0598 17.8554 17.3332 14.7154 17.3332 11.3488V8.21545C17.3332 7.66211 16.9865 7.16211 16.4665 6.96878L12.4665 5.46878C12.1665 5.34878 11.8332 5.34878 11.5332 5.46211Z" fill="#1A1A1A"/>
</svg>
