<svg width="24" height="24" viewBox="0 0 24 24" fill="none" xmlns="http://www.w3.org/2000/svg">
<rect x="0.5" y="0.5" width="23" height="23" rx="2.5" fill="#F5F5F5"/>
<rect x="0.5" y="0.5" width="23" height="23" rx="2.5" stroke="#ECECEC"/>
<path d="M14.6667 8.72C14.6667 9.9 14.1067 10.8867 13.3333 11.2667V17.3333C13.3333 17.7 13.0333 18 12.6667 18C12.3 18 12 17.7 12 17.3333V11.2667C11.2267 10.8867 10.6667 9.9 10.6667 8.72C10.6733 7.22 11.5667 6 12.6667 6C13.7733 6 14.6667 7.22 14.6667 8.72ZM16.18 6.12C15.76 5.99333 15.3333 6.32667 15.3333 6.76667V17.3333C15.3333 17.7 15.6333 18 16 18C16.3667 18 16.6667 17.7 16.6667 17.3333V12.6667H17.3333C17.7 12.6667 18 12.3667 18 12V8.66667C18 7.69333 17.4267 6.49333 16.18 6.12ZM9.52 6C9.25333 6 9.04 6.21333 9.04 6.48V8.66667H8.48V6.48C8.48 6.21333 8.26667 6 8 6C7.73333 6 7.52 6.21333 7.52 6.48V8.66667H6.96V6.48C6.96 6.21333 6.74667 6 6.48 6C6.21333 6 6 6.21333 6 6.48V10C6 10.7333 6.6 11.3333 7.33333 11.3333V17.3333C7.33333 17.7 7.63333 18 8 18C8.36667 18 8.66667 17.7 8.66667 17.3333V11.3333C9.4 11.3333 10 10.7333 10 10V6.48C10 6.21333 9.78667 6 9.52 6Z" fill="#1A1A1A"/>
</svg>
