<svg width="184" height="55" viewBox="0 0 184 55" fill="none" xmlns="http://www.w3.org/2000/svg">
<mask id="mask0_1258_3522" style="mask-type:luminance" maskUnits="userSpaceOnUse" x="0" y="0" width="183" height="55">
<path d="M182.924 0H0V55H182.924V0Z" fill="white"/>
</mask>
<g mask="url(#mask0_1258_3522)">
<path fill-rule="evenodd" clip-rule="evenodd" d="M0 14.052H4.53618V40.9565H0V14.052ZM36.7521 31.2585L18.3241 13.6372V40.9559H22.6856V23.4529L41.1136 41.3719V14.052H36.7521V31.2585ZM64.787 25.9702L60.4699 24.3922C58.2452 23.6048 56.9796 22.8149 56.9796 20.8438C56.9796 18.6531 58.987 17.601 61.6904 17.601C64.8303 17.601 67.2736 18.7839 69.4972 20.4934V15.804C67.361 14.4025 64.613 13.6133 61.6031 13.6133C56.6743 13.6133 52.5748 16.1983 52.5748 20.9309C52.5748 25.3562 55.2788 27.2846 58.8551 28.5991L62.7369 30.0017C65.1356 30.9218 66.4879 31.7549 66.4879 33.8573C66.4879 36.2671 64.3505 37.3632 61.2973 37.3632C58.158 37.3632 55.2347 36.2246 52.7921 34.2518V39.0281C54.6682 40.3431 57.7208 41.3947 61.2973 41.3947C66.7504 41.3947 70.8929 38.6769 70.8929 33.7697C70.8929 29.8702 68.9746 27.5037 64.787 25.9702ZM81.112 14.052H85.6476V40.9565H81.112V14.052ZM109.933 14.0526H99.6613V40.9565H109.933C117.828 40.9565 122.931 35.6981 122.931 27.5037C122.931 19.3104 117.827 14.0526 109.933 14.0526ZM109.759 36.8823H104.198V18.0836H109.759C115.383 18.0836 118.394 21.7202 118.394 27.5037C118.394 33.2434 115.384 36.8823 109.759 36.8823ZM133.226 40.9565H149.471V36.8823H137.675V28.5445H148.25V24.5567H137.675V18.0829H149.471V14.052H133.226V40.9565ZM173.013 29.8702C177.244 29.213 179.238 26.6273 179.238 22.1139C179.238 16.8562 175.663 14.052 170.124 14.052H160.408V40.9565H164.943V30.0456H168.171L177.494 40.9565H182.641L173.013 29.8702ZM164.944 26.233V17.9953H170.035C173.044 17.9953 174.747 19.6165 174.747 22.1139C174.747 24.612 173.044 26.233 170.035 26.233H164.944Z" fill="#767676"/>
</g>
</svg>
