<svg width="209" height="51" viewBox="0 0 209 51" fill="none" xmlns="http://www.w3.org/2000/svg">
<path d="M0 28.414V8.26678C0 2.8799 5.85127 1.48587 9.09217 4.72809C11.381 7.01783 14.2625 13.0607 17.5286 13.0607C12.0872 17.9619 0 28.414 0 28.414Z" fill="#767676"/>
<path d="M-4.24106e-05 31.2465C-4.24106e-05 31.2465 24.8742 9.74309 26.772 7.83813C31.2361 3.37219 39.5149 5.87009 39.5149 13.3827V20.6241C39.5149 20.6241 33.96 25.3613 32.6548 26.339C31.3496 27.3167 28.733 26.5597 27.9763 25.0333C27.2197 23.5068 26.3433 21.1098 23.1843 21.1098C21.1162 21.1098 19.7354 23.5383 17.5222 28.6224C13.4932 37.8823 11.3179 45.8301 6.09083 45.8301C1.95458 45.8301 -0.00634766 42.1275 -0.00634766 39.8377V31.2338L-4.24106e-05 31.2465Z" fill="#767676"/>
<path d="M22.207 38.3051L39.5149 23.6016V43.099C39.5149 45.496 38.1026 48.0002 35.2715 48.0002C32.4404 48.0002 31.0659 48.139 27.9259 43.0423C25.8262 39.6424 22.2133 38.3051 22.2133 38.3051H22.207Z" fill="#767676"/>
<path d="M66.0729 17.3627C66.0161 17.2996 65.9531 17.2744 65.8711 17.2744H61.5835C61.4952 17.2744 61.4322 17.2996 61.3754 17.3627C61.3187 17.4195 61.2872 17.4826 61.2872 17.5709V27.9409C61.2872 28.414 61.0161 28.6222 60.7575 28.66C60.6062 28.6853 60.2909 28.679 60.0198 28.3068L52.4788 17.6529C52.4094 17.5646 52.2959 17.47 52.132 17.3943C51.9806 17.3123 51.8356 17.2744 51.7032 17.2744H47.3589C47.2769 17.2744 47.2139 17.2996 47.1508 17.3627C47.0941 17.4195 47.0688 17.4826 47.0688 17.5709V37.3964C47.0688 37.4847 47.0941 37.5414 47.1508 37.6045C47.2139 37.6613 47.2769 37.6865 47.3652 37.6865H51.7032C51.7915 37.6865 51.8545 37.6613 51.9113 37.6045C51.968 37.5414 51.9996 37.4847 51.9996 37.3964V27.02C51.9996 26.4586 52.3779 26.3198 52.4977 26.2946C52.5355 26.2883 52.5859 26.2757 52.6427 26.2757C52.8192 26.2757 53.0525 26.3388 53.2732 26.6289L60.8206 37.2702C60.9026 37.3774 61.0224 37.4721 61.18 37.5604C61.325 37.6424 61.47 37.6802 61.5898 37.6802H65.8711C65.9531 37.6802 66.0161 37.655 66.0729 37.5982C66.1359 37.5351 66.1611 37.4784 66.1611 37.3901V17.5709C66.1611 17.4826 66.1359 17.4195 66.0729 17.3627Z" fill="#767676"/>
<path d="M76.533 22.1188C76.7411 21.9107 77.0185 21.8034 77.3149 21.8034H86.3188C86.407 21.8034 86.4701 21.7719 86.5268 21.7151C86.5836 21.6584 86.6151 21.5953 86.6151 21.507V17.5709C86.6151 17.4826 86.5836 17.4195 86.5268 17.3627C86.4701 17.2996 86.407 17.2744 86.3188 17.2744H71.5771C71.4888 17.2744 71.4258 17.2996 71.369 17.3627C71.3123 17.4195 71.2808 17.4826 71.2808 17.5709V37.3964C71.2808 37.4847 71.3123 37.5414 71.369 37.6045C71.4258 37.6613 71.4888 37.6865 71.5771 37.6865H86.3188C86.407 37.6865 86.4701 37.6613 86.5268 37.6045C86.5836 37.5414 86.6151 37.4847 86.6151 37.3964V33.3972C86.6151 33.3089 86.5836 33.2521 86.5268 33.189C86.4701 33.1323 86.407 33.107 86.3188 33.107H77.3149C77.0122 33.107 76.7411 32.9935 76.533 32.7853C76.325 32.5772 76.2115 32.3123 76.2115 32.0032V30.9056C76.2115 30.5965 76.325 30.3316 76.533 30.1234C76.7411 29.9153 77.0185 29.8017 77.3149 29.8017H85.1649C85.2532 29.8017 85.3162 29.7765 85.373 29.7197C85.4297 29.6567 85.4613 29.5999 85.4613 29.5116V25.5124C85.4613 25.4241 85.4297 25.3674 85.373 25.3043C85.3162 25.2475 85.2532 25.2223 85.1649 25.2223H77.3149C77.0122 25.2223 76.7411 25.1087 76.533 24.9006C76.325 24.6924 76.2115 24.4149 76.2115 24.1184V22.901C76.2115 22.6045 76.325 22.3396 76.533 22.1188Z" fill="#767676"/>
<path d="M106.288 17.3627C106.231 17.2996 106.168 17.2744 106.08 17.2744H91.3569C91.275 17.2744 91.2119 17.2996 91.1552 17.3627C91.0921 17.4195 91.0669 17.4826 91.0669 17.5709V37.3964C91.0669 37.4847 91.0921 37.5478 91.1552 37.6045C91.2119 37.6613 91.275 37.6865 91.3569 37.6865H95.7139C95.8021 37.6865 95.8589 37.6613 95.9219 37.6045C95.9787 37.5478 96.0039 37.4847 96.0039 37.3964V30.9876C96.0039 30.6912 96.1174 30.4262 96.3255 30.2118C96.5336 30.0036 96.7984 29.8901 97.101 29.8901H104.926C105.014 29.8901 105.077 29.8648 105.134 29.8017C105.197 29.745 105.222 29.6819 105.222 29.5999V25.544C105.222 25.4557 105.197 25.3926 105.134 25.3358C105.077 25.2727 105.014 25.2475 104.926 25.2475H97.101C96.8047 25.2475 96.5399 25.1403 96.3255 24.9321C96.1111 24.724 96.0039 24.459 96.0039 24.1562V22.9515C96.0039 22.655 96.1174 22.3901 96.3255 22.1756C96.5336 21.9674 96.7984 21.8602 97.101 21.8602H106.086C106.174 21.8602 106.237 21.835 106.294 21.7719C106.357 21.7151 106.382 21.652 106.382 21.5637V17.5709C106.382 17.4826 106.357 17.4195 106.294 17.3627H106.288Z" fill="#767676"/>
<path d="M115.216 22.1188C115.424 21.9107 115.702 21.8034 115.998 21.8034H125.002C125.09 21.8034 125.153 21.7719 125.21 21.7151C125.267 21.6584 125.298 21.5953 125.298 21.507V17.5709C125.298 17.4826 125.267 17.4195 125.21 17.3627C125.153 17.2996 125.09 17.2744 125.002 17.2744H110.26C110.172 17.2744 110.109 17.2996 110.052 17.3627C109.995 17.4195 109.964 17.4826 109.964 17.5709V37.3964C109.964 37.4847 109.995 37.5414 110.052 37.6045C110.109 37.6613 110.172 37.6865 110.26 37.6865H125.002C125.09 37.6865 125.153 37.6613 125.21 37.6045C125.267 37.5414 125.298 37.4847 125.298 37.3964V33.3972C125.298 33.3089 125.267 33.2521 125.21 33.189C125.153 33.1323 125.09 33.107 125.002 33.107H115.998C115.695 33.107 115.424 32.9935 115.216 32.7853C115.008 32.5772 114.895 32.3123 114.895 32.0032V30.9056C114.895 30.5965 115.008 30.3316 115.216 30.1234C115.424 29.9153 115.702 29.8017 115.998 29.8017H123.848C123.936 29.8017 123.999 29.7765 124.056 29.7197C124.113 29.6567 124.144 29.5999 124.144 29.5116V25.5124C124.144 25.4241 124.113 25.3674 124.056 25.3043C123.999 25.2475 123.936 25.2223 123.848 25.2223H115.998C115.695 25.2223 115.424 25.1087 115.216 24.9006C115.008 24.6924 114.895 24.4149 114.895 24.1184V22.901C114.895 22.6045 115.008 22.3396 115.216 22.1188Z" fill="#767676"/>
<path d="M148.823 17.3627C148.766 17.2996 148.703 17.2744 148.615 17.2744H144.327C144.245 17.2744 144.182 17.2996 144.125 17.3627C144.062 17.4195 144.037 17.4826 144.037 17.5709V27.9409C144.037 28.414 143.766 28.6222 143.507 28.66C143.344 28.6853 143.041 28.679 142.77 28.3068L135.229 17.6529C135.159 17.5646 135.033 17.47 134.882 17.3943C134.731 17.3123 134.586 17.2744 134.453 17.2744H130.109C130.021 17.2744 129.958 17.2996 129.901 17.3627C129.844 17.4195 129.812 17.4826 129.812 17.5709V37.3964C129.812 37.4847 129.844 37.5414 129.901 37.6045C129.964 37.6613 130.021 37.6865 130.109 37.6865H134.447C134.535 37.6865 134.598 37.6613 134.661 37.6045C134.718 37.5414 134.743 37.4847 134.743 37.3964V27.02C134.743 26.4586 135.128 26.3198 135.241 26.2946C135.279 26.2883 135.336 26.2757 135.393 26.2757C135.569 26.2757 135.802 26.3388 136.023 26.6289L143.571 37.2702C143.64 37.3774 143.766 37.4721 143.924 37.5604C144.075 37.6424 144.214 37.6802 144.34 37.6802H148.615C148.703 37.6802 148.766 37.655 148.823 37.5982C148.886 37.5351 148.911 37.4784 148.911 37.3901V17.5709C148.911 17.4826 148.88 17.4195 148.823 17.3627Z" fill="#767676"/>
<path d="M168.067 17.3438C168.035 17.3123 167.978 17.2744 167.858 17.2744H152.556C152.467 17.2744 152.404 17.2996 152.348 17.3627C152.291 17.4195 152.259 17.4826 152.259 17.5709V21.507C152.259 21.5953 152.291 21.6584 152.348 21.7151C152.404 21.7719 152.467 21.8034 152.556 21.8034H156.667C156.988 21.8034 157.272 21.917 157.474 22.1314C157.669 22.3396 157.764 22.6045 157.764 22.8947V37.3901C157.764 37.4784 157.795 37.5351 157.852 37.5982C157.909 37.655 157.972 37.6802 158.06 37.6802H162.404C162.531 37.6802 162.581 37.6424 162.612 37.6108C162.669 37.5541 162.694 37.4847 162.694 37.3964V22.901C162.694 22.6045 162.808 22.3396 163.016 22.1188C163.224 21.9107 163.502 21.8034 163.798 21.8034H167.852C167.972 21.8034 168.029 21.7656 168.06 21.7214C168.117 21.6647 168.142 21.6016 168.142 21.507V17.5709C168.142 17.4763 168.117 17.4069 168.06 17.3438H168.067Z" fill="#767676"/>
<path d="M188.779 17.3882C188.722 17.3314 188.666 17.3062 188.577 17.3062H184.22C184.138 17.3062 184.075 17.3314 184.019 17.3882C183.956 17.4512 183.93 17.508 183.93 17.5963V29.3352C183.93 30.1489 183.792 30.8427 183.527 31.3852C183.262 31.9277 182.922 32.3566 182.531 32.672C182.146 32.9874 181.711 33.2145 181.251 33.3406C180.374 33.5993 179.706 33.5993 178.823 33.3406C178.375 33.2145 177.94 32.9874 177.537 32.6783C177.133 32.3629 176.799 31.9214 176.522 31.3726C176.257 30.8301 176.118 30.1426 176.118 29.3289V17.5963C176.118 17.508 176.093 17.4512 176.036 17.3882C175.973 17.3314 175.916 17.3062 175.828 17.3062H171.471C171.389 17.3062 171.326 17.3314 171.269 17.3882C171.206 17.4512 171.181 17.508 171.181 17.5963V29.3352C171.181 30.6535 171.396 31.8646 171.818 32.9243C172.247 33.984 172.839 34.905 173.602 35.6556C174.378 36.4062 175.311 36.9992 176.389 37.4092C177.474 37.8192 178.71 38.04 180.034 38.04C181.358 38.04 182.594 37.8255 183.678 37.4092C184.763 36.9992 185.696 36.3999 186.465 35.6556C187.228 34.905 187.833 33.9903 188.237 32.9369C188.653 31.8646 188.867 30.6598 188.867 29.3352V17.5963C188.867 17.508 188.842 17.4512 188.779 17.3882Z" fill="#767676"/>
<path d="M208.319 28.9252C207.859 28.1493 207.291 27.5249 206.61 27.0392C205.917 26.5535 205.173 26.1876 204.391 25.9353C203.578 25.683 202.821 25.4874 202.146 25.355C202.026 25.3361 201.711 25.2856 201.219 25.191C200.728 25.0964 200.204 24.9765 199.675 24.8188C199.126 24.6548 198.634 24.4593 198.212 24.2385C197.663 23.9483 197.386 23.5888 197.386 23.1535C197.386 22.7751 197.512 22.4597 197.764 22.2263C197.972 22.0244 198.237 21.8794 198.552 21.7974C198.836 21.7154 199.132 21.6775 199.448 21.6586C199.731 21.6523 199.977 21.6523 200.198 21.6523C200.955 21.6523 201.781 21.7911 202.67 22.056C203.546 22.3272 204.504 22.7877 205.513 23.4248C205.608 23.4879 205.665 23.4942 205.747 23.4816C205.841 23.4626 205.91 23.4248 205.961 23.3428L208.212 20.1384C208.275 20.0564 208.294 19.9744 208.281 19.8861C208.275 19.7978 208.231 19.7221 208.161 19.6527C207.033 18.7885 205.828 18.1136 204.586 17.6531C202.644 16.9466 200.198 16.7259 197.581 17.2683C196.648 17.4639 195.784 17.7982 195.028 18.2839C194.29 18.757 193.659 19.4193 193.174 20.2267C192.688 21.0341 192.449 22.0686 192.449 23.3239C192.449 24.1754 192.575 24.9197 192.833 25.5316C193.092 26.1498 193.439 26.6922 193.861 27.1338C194.296 27.5816 194.794 27.9538 195.343 28.244C195.904 28.5404 196.484 28.7927 197.064 28.982C197.644 29.1838 198.218 29.3289 198.76 29.4298C199.334 29.5371 199.82 29.6317 200.248 29.7011C200.696 29.7957 201.125 29.8777 201.535 29.9345C201.976 29.9912 202.373 30.0732 202.707 30.1742C203.079 30.2877 203.369 30.4265 203.603 30.6031C203.899 30.8302 204.05 31.1456 204.05 31.524C204.05 32.1548 203.754 32.6531 203.174 32.9622C202.67 33.2334 201.97 33.3722 201.043 33.3722C200.116 33.3722 199.094 33.1704 198.035 32.7667C196.995 32.3693 195.929 31.8268 194.864 31.1329C194.832 31.1077 194.782 31.0951 194.719 31.0951C194.693 31.0951 194.662 31.0951 194.637 31.1014C194.542 31.1203 194.466 31.1645 194.41 31.2402L192.19 34.4445C192.127 34.5329 192.108 34.6149 192.121 34.7095C192.133 34.8041 192.159 34.8609 192.215 34.9113C192.758 35.3466 193.344 35.7629 193.968 36.154C194.586 36.5324 195.273 36.8731 196.005 37.1443C196.73 37.4281 197.524 37.6489 198.369 37.8066C199.208 37.9706 200.122 38.0463 201.1 38.0463C202.298 38.0463 203.401 37.9202 204.378 37.6678C205.337 37.4281 206.175 37.0371 206.85 36.5324C207.518 36.0341 208.048 35.3907 208.42 34.6086C208.798 33.8264 208.994 32.8802 208.994 31.7826C208.994 30.622 208.767 29.6569 208.306 28.9063L208.319 28.9252Z" fill="#767676"/>
</svg>
