<svg width="192" height="55" viewBox="0 0 192 55" fill="none" xmlns="http://www.w3.org/2000/svg">
<g clip-path="url(#clip0_1258_3512)">
<mask id="mask0_1258_3512" style="mask-type:luminance" maskUnits="userSpaceOnUse" x="0" y="0" width="192" height="55">
<path d="M191.585 0H0V55H191.585V0Z" fill="white"/>
</mask>
<g mask="url(#mask0_1258_3512)">
<mask id="mask1_1258_3512" style="mask-type:luminance" maskUnits="userSpaceOnUse" x="0" y="14" width="192" height="27">
<path d="M191.585 14.4048H0V40.5953H191.585V14.4048Z" fill="white"/>
</mask>
<g mask="url(#mask1_1258_3512)">
<path d="M27.532 40.5953H45.9137V35.7102H33.1034V29.7168H43.7178V24.8317H33.1034V19.2898H45.995V14.4048H27.532V40.5953ZM68.0369 30.9073L55.9993 14.4048H47.7032L50.3058 17.7299V40.6774H55.8366V23.477L68.2809 40.5953H73.6084V14.4048H68.0369V30.9073ZM19.1545 27.1306C21.5946 26.679 23.6279 24.3802 23.6279 21.1372C23.6279 17.6478 21.1065 14.4048 16.1044 14.4048H0L2.52139 17.6478V40.6364H16.6738C21.6759 40.6364 24.2785 37.4755 24.2785 33.5346C24.1566 30.2915 21.9605 27.5 19.1545 27.1306ZM8.0522 19.331H15.0064C16.8771 19.331 18.0564 20.4393 18.0564 22.0813C18.0564 23.7234 16.8771 24.8317 15.0064 24.8317H8.0522V19.331ZM15.2504 35.7512H8.0522V29.7168H15.2504C17.3651 29.7168 18.5445 31.0715 18.5445 32.7135C18.5445 34.6018 17.2838 35.7102 15.2504 35.7512ZM154.862 30.9073H157.75V33.9861C156.245 35.2176 154.374 35.9154 152.422 35.9565C147.786 35.9565 144.533 32.3851 144.533 27.5821C144.533 22.7792 147.827 19.2077 152.422 19.2077C154.822 19.2077 157.059 20.4803 158.36 22.5329L162.752 20.0698C160.882 17.0731 157.587 14.4048 152.382 14.4048C145.021 14.4048 138.921 19.5362 138.921 27.5C138.921 35.4639 144.939 40.5953 152.382 40.5953C156.449 40.6774 160.312 38.9121 162.996 35.8744V26.1864H151.121L154.862 30.9073ZM129.852 30.9073L117.773 14.4048H109.518L112.08 17.7299V40.6774H117.651V23.477L130.096 40.5953H135.382V14.4048H129.852V30.9073ZM181.378 14.4048H170.682L173.244 17.7299L172.796 19.0025L164.5 40.6774H170.763L172.39 36.2438H183.574L185.201 40.6774H191.463L181.378 14.4048ZM173.813 31.3178L177.88 20.0288L181.947 31.3178H173.813ZM100.734 14.4048H106.305V40.7184H100.734V14.4048ZM96.301 18.9204V14.4048H76.7398V19.2898H89.0214L76.7398 36.1207V40.5953H96.5043V35.7102H83.938L96.301 18.9204Z" fill="#767676"/>
</g>
</g>
</g>
<defs>
<clipPath id="clip0_1258_3512">
<rect width="192" height="55" fill="white"/>
</clipPath>
</defs>
</svg>
