<svg width="130" height="24" viewBox="0 0 130 24" fill="none" xmlns="http://www.w3.org/2000/svg">
<g clip-path="url(#clip0_154_74)">
<path d="M40.23 24.0482C40.0987 23.9798 40.0215 23.861 39.9316 23.8504C37.6047 23.5776 35.5666 22.6952 33.8024 21.1258C31.6885 19.2453 30.4237 16.8927 29.9275 14.156C29.3278 10.849 30.0023 7.75543 31.8598 4.94237C32.7269 3.62914 33.8448 2.54434 35.1638 1.70117C36.2021 1.03746 37.3361 0.546062 38.5613 0.304244C38.6509 0.286552 38.7294 0.212665 38.7781 0.13421C40.0469 0.103516 41.3508 0.103516 42.7028 0.103516C42.798 0.170957 42.8354 0.287254 42.8935 0.298776C44.9309 0.702745 46.6087 1.75839 47.9884 3.25664C49.4296 4.82172 50.3963 6.6662 50.7617 8.78402C50.9043 9.61055 51.0539 10.4497 51.0561 11.2834C51.0594 12.541 50.2971 13.6589 49.0255 14.0123C48.6098 14.1279 48.1625 14.1743 47.7294 14.1758C43.9805 14.1881 40.2315 14.1828 36.4825 14.1828C36.295 14.1828 36.1074 14.1828 35.8563 14.1828C36.2233 15.3571 36.8723 16.2913 37.7746 17.0405C38.9268 17.9971 40.3084 18.2638 41.7645 18.2968C43.6877 18.3403 45.547 18.0451 47.3452 17.3523C47.459 17.3084 47.713 17.3922 47.7769 17.4945C48.1288 18.0585 48.4698 18.6331 48.7615 19.2301C49.1477 20.0206 49.485 20.835 49.8586 21.7106C49.9377 21.8868 50.0015 21.9915 50.0653 22.0962C50.0653 22.0962 50.0873 22.0945 50.0792 22.1463C50.0633 22.2268 50.0554 22.2554 50.0475 22.284C49.1591 22.6322 48.2922 23.0597 47.3766 23.3072C46.387 23.5746 45.3517 23.6721 44.3374 23.8504C44.2629 23.8635 44.198 23.9312 44.1592 24.0109C42.8859 24.0482 41.582 24.0482 40.23 24.0482ZM39.5166 5.94965C38.1852 6.35537 37.1767 7.15726 36.4546 8.39138C39.2064 8.39138 41.8921 8.39138 44.6403 8.39138C44.1485 7.43236 43.5008 6.70636 42.6174 6.19882C41.6533 5.6449 40.6254 5.68713 39.5166 5.94965Z" fill="#88ACB2"/>
<path d="M102.41 0.103516C102.506 0.1709 102.543 0.287698 102.601 0.298572C105.362 0.818186 107.6 2.24279 109.401 4.34237C110.855 6.03904 111.74 8.0226 112.02 10.2636C112.344 12.8601 111.983 15.3207 110.697 17.6289C109.607 19.5856 108.117 21.1248 106.173 22.2536C104.835 23.0303 103.4 23.4853 101.895 23.7283C100.258 23.9927 98.6332 23.8244 97.0374 23.3934C94.7676 22.7803 92.8649 21.5518 91.3048 19.8178C89.8198 18.1671 88.853 16.2122 88.5058 14.0282C88.0779 11.3369 88.3999 8.70407 89.7609 6.29593C91.5711 3.09317 94.2597 1.036 97.9052 0.300913C97.9791 0.286008 98.0414 0.213365 98.0743 0.135587C99.4804 0.103515 100.921 0.103515 102.41 0.103516ZM102.211 17.7886C103.576 17.4082 104.604 16.5427 105.373 15.4087C106.7 13.4499 106.87 11.3277 105.817 9.21396C104.892 7.35799 103.376 6.19655 101.272 5.84833C99.3557 5.53123 97.6526 5.99019 96.2116 7.24402C94.4587 8.76933 93.7396 10.7279 94.1403 13.0407C94.4215 14.664 95.265 15.9803 96.5826 16.9428C98.2668 18.1731 100.147 18.4233 102.211 17.7886Z" fill="#88ACB2"/>
<path d="M76.4103 0.103516C76.5221 0.17183 76.5756 0.284773 76.6508 0.301866C78.1537 0.643289 79.55 1.23725 80.7766 2.16642C82.8971 3.77275 84.3918 5.81206 84.8785 8.48147C85.0049 9.17465 85.0788 9.88733 85.0819 10.5915C85.1003 14.8031 85.091 19.0148 85.091 23.2266C85.091 23.4118 85.091 23.5971 85.091 23.8124C83.2013 23.8124 81.3462 23.8124 79.4387 23.8124C79.4387 23.6173 79.4387 23.4342 79.4387 23.2512C79.4387 19.0908 79.4508 14.9304 79.4344 10.7702C79.4239 8.11618 77.5435 6.25363 75.1444 5.88616C72.7679 5.52216 70.4999 6.84373 69.5836 8.96006C69.3896 9.40804 69.2809 9.92957 69.2783 10.418C69.2551 14.6809 69.2649 18.9441 69.2649 23.2071C69.2649 23.3942 69.2649 23.5813 69.2649 23.8055C67.3893 23.8055 65.534 23.8055 63.6126 23.8055C63.6126 23.633 63.6126 23.4518 63.6126 23.2706C63.6127 18.8706 63.6027 14.4705 63.6168 10.0705C63.624 7.81178 64.5131 5.88381 65.8911 4.13421C66.8609 2.90292 68.075 1.97381 69.44 1.26883C70.2737 0.838255 71.2182 0.622526 72.1119 0.307341C72.2171 0.270213 72.3158 0.214297 72.3827 0.135303C73.6859 0.103515 75.0241 0.103515 76.4103 0.103516Z" fill="#88ACB2"/>
<path d="M130.103 4.78797C129.082 5.45958 128.015 6.02418 127.054 6.73383C125.917 7.57386 124.811 8.47651 123.801 9.46379C122.055 11.1703 121.059 13.2926 120.523 15.6764C120.152 17.3315 120.274 18.9876 120.241 20.6464C120.221 21.6885 120.237 22.7313 120.237 23.8081C118.39 23.8081 116.569 23.8081 114.688 23.8081C114.688 15.9384 114.688 8.06913 114.688 0.151677C116.505 0.103515 118.323 0.103515 120.189 0.151677C120.237 1.75879 120.237 3.31774 120.237 4.89371C120.317 4.87195 120.336 4.87264 120.345 4.86369C122.317 2.87576 124.602 1.35646 127.186 0.280318C127.218 0.266915 127.213 0.164423 127.225 0.103516C127.401 0.103515 127.578 0.103515 127.799 0.141157C127.954 0.381976 128.071 0.582237 128.175 0.788819C128.717 1.86083 129.251 2.93647 129.8 4.00476C129.863 4.12817 130 4.21381 130.103 4.31696C130.103 4.45969 130.103 4.60242 130.103 4.78797Z" fill="#88ACB2"/>
<path d="M60.0704 0.103516C60.1186 7.99397 60.1186 15.8844 60.1186 23.8088C58.2362 23.8088 56.3811 23.8088 54.4664 23.8088C54.4664 15.9378 54.4664 8.06882 54.4664 0.151678C56.3183 0.103516 58.1703 0.103516 60.0704 0.103516Z" fill="#88ACB2"/>
<path d="M23.5883 0.103516C23.6994 0.171829 23.7512 0.281511 23.8273 0.302185C24.8073 0.568734 25.5933 1.51773 25.8072 2.50764C26.1352 4.02559 25.5928 5.20181 24.5462 6.23498C21.5277 9.21487 18.5207 12.2065 15.4919 15.1758C14.5334 16.1155 13.0935 16.3689 11.8233 15.6266C10.5428 14.8782 9.98784 13.6388 10.2488 12.2727C10.4382 11.2814 10.9133 10.5027 11.6125 9.80867C13.8852 7.55266 16.1363 5.27491 18.4123 3.02229C19.4759 1.96965 20.4167 0.761644 21.8215 0.13092C22.3711 0.103516 22.9556 0.103516 23.5883 0.103516Z" fill="#88ACB2"/>
<path d="M0.102768 5.7002C0.196415 5.72824 0.313761 5.78796 0.380033 5.88322C1.02561 6.81112 1.74053 7.6611 2.589 8.42897C3.90729 9.62202 5.12175 10.9298 6.38045 12.1887C6.85509 12.6634 6.79755 13.2666 6.77364 13.8563C6.76071 14.1753 6.68631 14.4927 6.68426 14.8111C6.67442 16.3345 6.67943 17.8581 6.68004 19.3816C6.68029 20.0165 6.77049 20.6663 6.66642 21.2835C6.4279 22.6982 5.43503 23.4377 4.13632 23.8434C4.03117 23.8762 3.9353 23.9387 3.87013 24.0174C3.62767 24.0473 3.3502 24.0473 3.06147 24.0174C3.01578 23.9496 2.98675 23.8862 2.94611 23.8776C1.56814 23.5858 0.719399 22.7328 0.300961 21.4108C0.281694 21.3499 0.170922 21.318 0.102768 21.2726C0.102768 16.0978 0.102768 10.9231 0.102768 5.7002Z" fill="#88ACB2"/>
<path d="M22.346 24.0473C22.2367 23.9791 22.1822 23.8645 22.1078 23.8497C20.6962 23.569 19.5035 22.3458 19.5188 20.7765C19.5443 18.1615 19.5321 15.546 19.5188 12.9308C19.5169 12.5429 19.6363 12.2575 19.9118 11.9907C21.4791 10.4721 23.0356 8.94214 24.6524 7.41836C24.8613 7.33185 25.0167 7.248 25.165 7.15313C25.4058 6.99911 25.642 6.83788 25.8801 6.67969C25.8858 9.24251 25.8934 11.8053 25.8967 14.3682C25.8994 16.5554 25.8994 18.7427 25.8965 20.93C25.8946 22.3142 24.6855 23.5407 23.4077 23.8439C23.2852 23.873 23.171 23.9371 23.0877 24.0161C22.8789 24.0473 22.6353 24.0473 22.346 24.0473Z" fill="#88ACB2"/>
<path d="M4.37092 0.103516C4.41969 0.152147 4.40728 0.238551 4.423 0.24401C5.35569 0.568 5.96707 1.30722 6.63592 1.96549C7.78174 3.09318 8.90613 4.24263 10.051 5.37127C10.6807 5.99197 11.3404 6.58208 11.9742 7.19863C12.4616 7.67274 12.4538 7.84468 11.9797 8.31883C11.4552 8.84337 10.8535 9.31171 10.4231 9.90451C9.71712 10.877 9.31842 11.9711 9.64103 13.2176C9.6844 13.3852 9.60669 13.5841 9.56936 13.9021C9.18608 13.6199 8.89124 13.4544 8.66013 13.2248C6.29435 10.874 3.93844 8.51327 1.58092 6.15417C0.94387 5.5167 0.381199 4.83645 0.293463 3.88457C0.288501 3.83074 0.210041 3.78368 0.134277 3.7683C0.102765 3.55951 0.102765 3.31589 0.134263 3.06147C0.202482 3.01497 0.266258 2.98316 0.272012 2.94303C0.470458 1.559 1.3184 0.747576 2.58364 0.293784C2.62987 0.277201 2.64325 0.169013 2.67194 0.103516C3.22224 0.103516 3.77255 0.103516 4.37092 0.103516Z" fill="#88ACB2"/>
<path d="M50.0571 22.0592C50.0015 21.9909 49.9377 21.8861 49.8795 21.7402C49.9397 21.807 49.9943 21.9149 50.0571 22.0592Z" fill="#88ACB2"/>
<path d="M50.0793 22.2816C50.0554 22.2549 50.0633 22.2263 50.0849 22.1553C50.1028 22.1685 50.1069 22.2241 50.0793 22.2816Z" fill="#88ACB2"/>
<path d="M25.8873 6.64073C25.642 6.83805 25.4058 6.99928 25.165 7.1533C25.0167 7.24817 24.8613 7.33202 24.6841 7.40447C24.9411 7.09361 25.2161 6.7919 25.508 6.50748C25.6635 6.35594 25.8608 6.18381 25.8873 6.64073Z" fill="#88ACB2"/>
</g>
<defs>
<clipPath id="clip0_154_74">
<rect width="130" height="23.9447" fill="white"/>
</clipPath>
</defs>
</svg>
